<?xml version="1.0" encoding="UTF-8"?>
<svg xmlns="http://www.w3.org/2000/svg" xmlns:xlink="http://www.w3.org/1999/xlink" width="854" height="480" viewBox="0 0 854 480">
<defs>
<g>
<g id="glyph-0-0">
<path d="M 0.292969 -1.0625 C 0.292969 -1.289062 0.367188 -1.476562 0.515625 -1.632812 C 0.664062 -1.789062 0.863281 -1.867188 1.113281 -1.867188 C 1.433594 -1.867188 1.867188 -1.675781 2.410156 -1.285156 C 2.953125 -0.898438 3.371094 -0.703125 3.671875 -0.703125 C 4.023438 -0.703125 4.328125 -0.828125 4.582031 -1.074219 C 4.839844 -1.320312 4.96875 -1.65625 4.96875 -2.078125 C 4.96875 -2.507812 4.820312 -2.871094 4.53125 -3.171875 C 4.242188 -3.46875 3.914062 -3.703125 3.546875 -3.867188 C 3.15625 -4.046875 2.714844 -4.175781 2.21875 -4.257812 C 1.898438 -4.308594 1.382812 -4.359375 0.675781 -4.40625 L 1.972656 -9.011719 L 6.261719 -9.011719 L 5.691406 -7.3125 L 1.984375 -7.3125 L 1.691406 -6.230469 C 2.726562 -6.199219 3.5625 -6.050781 4.207031 -5.78125 C 5.414062 -5.277344 6.015625 -4.382812 6.015625 -3.097656 C 6.015625 -2.160156 5.65625 -1.390625 4.933594 -0.785156 C 4.214844 -0.179688 3.308594 0.125 2.21875 0.125 C 1.667969 0.125 1.210938 0.015625 0.84375 -0.203125 C 0.476562 -0.417969 0.292969 -0.707031 0.292969 -1.0625 Z "/>
</g>
<g id="glyph-0-1">
<path d="M 0.8125 -9.011719 L 6.355469 -9.011719 L 3.222656 0 L 1.960938 0 L 4.5625 -7.082031 C 4.558594 -7.136719 4.546875 -7.171875 4.53125 -7.1875 L 1.984375 -7.1875 C 1.570312 -7.1875 1.265625 -7.121094 1.070312 -6.984375 C 0.878906 -6.851562 0.707031 -6.539062 0.554688 -6.046875 L 0.226562 -6.046875 Z "/>
</g>
<g id="glyph-0-2">
<path d="M 2.402344 -2.960938 C 2.410156 -1.875 2.492188 -1.144531 2.644531 -0.765625 C 2.796875 -0.386719 3.023438 -0.195312 3.332031 -0.195312 C 3.71875 -0.195312 3.980469 -0.546875 4.113281 -1.25 C 4.1875 -1.636719 4.226562 -2.207031 4.226562 -2.960938 L 4.226562 -6.015625 C 4.226562 -7.097656 4.148438 -7.828125 3.992188 -8.207031 C 3.839844 -8.585938 3.617188 -8.777344 3.320312 -8.777344 C 3.019531 -8.777344 2.792969 -8.582031 2.636719 -8.199219 C 2.480469 -7.816406 2.402344 -7.085938 2.402344 -6.015625 Z M 0.304688 -4.425781 C 0.304688 -6.019531 0.660156 -7.253906 1.375 -8.125 C 1.9375 -8.820312 2.585938 -9.167969 3.3125 -9.167969 C 4.15625 -9.167969 4.867188 -8.738281 5.441406 -7.882812 C 6.027344 -7.007812 6.320312 -5.90625 6.320312 -4.578125 C 6.320312 -3.011719 5.988281 -1.789062 5.324219 -0.917969 C 4.765625 -0.183594 4.097656 0.183594 3.320312 0.183594 C 2.773438 0.183594 2.308594 0.0234375 1.921875 -0.300781 C 1.535156 -0.621094 1.203125 -1.035156 0.929688 -1.542969 C 0.695312 -1.972656 0.53125 -2.464844 0.4375 -3.019531 C 0.378906 -3.347656 0.335938 -3.816406 0.304688 -4.425781 Z "/>
</g>
<g id="glyph-0-3">
<path d="M 0.890625 -0.320312 C 1.570312 -0.320312 2.003906 -0.410156 2.195312 -0.59375 C 2.386719 -0.78125 2.480469 -1.128906 2.480469 -1.648438 L 2.480469 -6.785156 C 2.480469 -7.113281 2.441406 -7.347656 2.367188 -7.488281 C 2.289062 -7.625 2.152344 -7.695312 1.945312 -7.695312 C 1.835938 -7.695312 1.671875 -7.660156 1.445312 -7.585938 C 1.300781 -7.542969 1.105469 -7.472656 0.859375 -7.375 L 0.859375 -7.714844 L 4.226562 -9.167969 L 4.460938 -9.167969 L 4.460938 -1.570312 C 4.460938 -1.082031 4.539062 -0.753906 4.695312 -0.578125 C 4.851562 -0.40625 5.25 -0.320312 5.890625 -0.320312 L 5.890625 0 L 0.890625 0 Z "/>
</g>
</g>
</defs>
<g fill="rgb(94.117647%, 53.333333%, 24.313725%)" fill-opacity="1">
<use xlink:href="#glyph-0-0" x="30" y="30"/>
<use xlink:href="#glyph-0-1" x="37" y="30"/>
<use xlink:href="#glyph-0-2" x="44" y="30"/>
<use xlink:href="#glyph-0-3" x="51" y="30"/>
</g>
</svg>
