<?xml version="1.0" encoding="UTF-8"?>
<svg xmlns="http://www.w3.org/2000/svg" xmlns:xlink="http://www.w3.org/1999/xlink" width="854" height="480" viewBox="0 0 854 480">
<defs>
<g>
<g id="glyph-0-0">
<path d="M 3.574219 -3.390625 L 3.574219 -7.1875 L 3.484375 -7.1875 L 0.878906 -3.515625 L 0.878906 -3.390625 Z M 0.242188 -3.425781 C 0.277344 -3.5 0.3125 -3.5625 0.351562 -3.621094 C 0.390625 -3.679688 0.511719 -3.851562 0.710938 -4.132812 L 2.097656 -6.105469 L 3.886719 -8.46875 L 4.425781 -9.167969 L 5.488281 -9.167969 L 5.488281 -3.390625 L 6.320312 -3.390625 L 6.320312 -1.90625 L 5.488281 -1.90625 L 5.488281 0 L 3.5625 0 L 3.5625 -1.90625 L 0.242188 -1.90625 Z "/>
</g>
<g id="glyph-0-1">
<path d="M 0.226562 -0.304688 C 1.648438 -1.84375 2.570312 -2.914062 3 -3.515625 C 3.660156 -4.425781 3.992188 -5.234375 3.992188 -5.9375 C 3.992188 -6.355469 3.863281 -6.742188 3.609375 -7.105469 C 3.355469 -7.46875 2.960938 -7.648438 2.429688 -7.648438 C 1.960938 -7.648438 1.566406 -7.488281 1.242188 -7.160156 C 1.070312 -6.984375 0.914062 -6.746094 0.78125 -6.445312 L 0.417969 -6.445312 C 0.710938 -7.371094 1.121094 -8.054688 1.640625 -8.5 C 2.160156 -8.945312 2.746094 -9.167969 3.398438 -9.167969 C 4.015625 -9.167969 4.574219 -8.953125 5.078125 -8.523438 C 5.582031 -8.097656 5.832031 -7.46875 5.832031 -6.640625 C 5.832031 -6.207031 5.714844 -5.761719 5.476562 -5.304688 C 5.242188 -4.851562 4.84375 -4.355469 4.285156 -3.820312 L 2.253906 -1.882812 L 2.253906 -1.769531 L 4.148438 -1.769531 C 4.808594 -1.769531 5.238281 -1.824219 5.4375 -1.933594 C 5.640625 -2.042969 5.84375 -2.332031 6.046875 -2.804688 L 6.367188 -2.804688 L 5.769531 0 L 0.226562 0 Z "/>
</g>
<g id="glyph-0-2">
<path d="M 0.8125 -9.011719 L 6.355469 -9.011719 L 3.222656 0 L 1.960938 0 L 4.5625 -7.082031 C 4.558594 -7.136719 4.546875 -7.171875 4.53125 -7.1875 L 1.984375 -7.1875 C 1.570312 -7.1875 1.265625 -7.121094 1.070312 -6.984375 C 0.878906 -6.851562 0.707031 -6.539062 0.554688 -6.046875 L 0.226562 -6.046875 Z "/>
</g>
</g>
</defs>
<g fill="rgb(97.254902%, 31.764706%, 28.627451%)" fill-opacity="1">
<use xlink:href="#glyph-0-0" x="30" y="30"/>
<use xlink:href="#glyph-0-1" x="37" y="30"/>
<use xlink:href="#glyph-0-2" x="44" y="30"/>
</g>
</svg>
