<?xml version="1.0" encoding="UTF-8"?>
<svg xmlns="http://www.w3.org/2000/svg" xmlns:xlink="http://www.w3.org/1999/xlink" width="854" height="480" viewBox="0 0 854 480">
<defs>
<g>
<g id="glyph-0-0">
<path d="M 0.292969 -1.0625 C 0.292969 -1.289062 0.367188 -1.476562 0.515625 -1.632812 C 0.664062 -1.789062 0.863281 -1.867188 1.113281 -1.867188 C 1.433594 -1.867188 1.867188 -1.675781 2.410156 -1.285156 C 2.953125 -0.898438 3.371094 -0.703125 3.671875 -0.703125 C 4.023438 -0.703125 4.328125 -0.828125 4.582031 -1.074219 C 4.839844 -1.320312 4.96875 -1.65625 4.96875 -2.078125 C 4.96875 -2.507812 4.820312 -2.871094 4.53125 -3.171875 C 4.242188 -3.46875 3.914062 -3.703125 3.546875 -3.867188 C 3.15625 -4.046875 2.714844 -4.175781 2.21875 -4.257812 C 1.898438 -4.308594 1.382812 -4.359375 0.675781 -4.40625 L 1.972656 -9.011719 L 6.261719 -9.011719 L 5.691406 -7.3125 L 1.984375 -7.3125 L 1.691406 -6.230469 C 2.726562 -6.199219 3.5625 -6.050781 4.207031 -5.78125 C 5.414062 -5.277344 6.015625 -4.382812 6.015625 -3.097656 C 6.015625 -2.160156 5.65625 -1.390625 4.933594 -0.785156 C 4.214844 -0.179688 3.308594 0.125 2.21875 0.125 C 1.667969 0.125 1.210938 0.015625 0.84375 -0.203125 C 0.476562 -0.417969 0.292969 -0.707031 0.292969 -1.0625 Z "/>
</g>
<g id="glyph-0-1">
<path d="M 0.226562 -0.304688 C 1.648438 -1.84375 2.570312 -2.914062 3 -3.515625 C 3.660156 -4.425781 3.992188 -5.234375 3.992188 -5.9375 C 3.992188 -6.355469 3.863281 -6.742188 3.609375 -7.105469 C 3.355469 -7.46875 2.960938 -7.648438 2.429688 -7.648438 C 1.960938 -7.648438 1.566406 -7.488281 1.242188 -7.160156 C 1.070312 -6.984375 0.914062 -6.746094 0.78125 -6.445312 L 0.417969 -6.445312 C 0.710938 -7.371094 1.121094 -8.054688 1.640625 -8.5 C 2.160156 -8.945312 2.746094 -9.167969 3.398438 -9.167969 C 4.015625 -9.167969 4.574219 -8.953125 5.078125 -8.523438 C 5.582031 -8.097656 5.832031 -7.46875 5.832031 -6.640625 C 5.832031 -6.207031 5.714844 -5.761719 5.476562 -5.304688 C 5.242188 -4.851562 4.84375 -4.355469 4.285156 -3.820312 L 2.253906 -1.882812 L 2.253906 -1.769531 L 4.148438 -1.769531 C 4.808594 -1.769531 5.238281 -1.824219 5.4375 -1.933594 C 5.640625 -2.042969 5.84375 -2.332031 6.046875 -2.804688 L 6.367188 -2.804688 L 5.769531 0 L 0.226562 0 Z "/>
</g>
<g id="glyph-0-2">
<path d="M 3.152344 -5.011719 C 2.898438 -5.011719 2.738281 -4.972656 2.667969 -4.894531 C 2.597656 -4.816406 2.550781 -4.6875 2.527344 -4.503906 C 2.511719 -4.394531 2.5 -4.242188 2.488281 -4.039062 C 2.472656 -3.835938 2.46875 -3.621094 2.46875 -3.386719 C 2.46875 -2.925781 2.476562 -2.523438 2.492188 -2.183594 C 2.511719 -1.84375 2.542969 -1.546875 2.589844 -1.296875 C 2.648438 -0.984375 2.738281 -0.71875 2.867188 -0.503906 C 2.996094 -0.289062 3.195312 -0.183594 3.464844 -0.183594 C 3.839844 -0.183594 4.085938 -0.371094 4.199219 -0.75 C 4.269531 -0.984375 4.304688 -1.457031 4.304688 -2.175781 C 4.304688 -3.253906 4.210938 -4 4.03125 -4.402344 C 3.847656 -4.808594 3.554688 -5.011719 3.152344 -5.011719 Z M 6.261719 -8.820312 C 5.320312 -8.65625 4.554688 -8.285156 3.960938 -7.703125 C 3.367188 -7.121094 2.957031 -6.375 2.726562 -5.460938 L 2.792969 -5.417969 C 2.949219 -5.46875 3.082031 -5.507812 3.195312 -5.535156 C 3.417969 -5.585938 3.644531 -5.613281 3.878906 -5.613281 C 4.535156 -5.613281 5.105469 -5.394531 5.59375 -4.953125 C 6.078125 -4.515625 6.320312 -3.84375 6.320312 -2.9375 C 6.320312 -1.921875 6.027344 -1.144531 5.441406 -0.613281 C 4.855469 -0.078125 4.183594 0.1875 3.425781 0.1875 C 2.578125 0.1875 1.855469 -0.144531 1.257812 -0.816406 C 0.664062 -1.488281 0.363281 -2.414062 0.363281 -3.59375 C 0.363281 -5.210938 0.964844 -6.535156 2.160156 -7.566406 C 3.25 -8.5 4.617188 -9.03125 6.261719 -9.167969 Z "/>
</g>
<g id="glyph-0-3">
<path d="M 3.933594 -5.632812 C 4.128906 -5.898438 4.253906 -6.101562 4.316406 -6.25 C 4.421875 -6.488281 4.472656 -6.78125 4.472656 -7.121094 C 4.472656 -7.605469 4.382812 -8 4.207031 -8.308594 C 4.027344 -8.621094 3.71875 -8.777344 3.28125 -8.777344 C 2.964844 -8.777344 2.707031 -8.671875 2.507812 -8.464844 C 2.308594 -8.253906 2.207031 -7.996094 2.207031 -7.683594 C 2.207031 -7.1875 2.457031 -6.71875 2.957031 -6.277344 C 3.246094 -6.015625 3.570312 -5.800781 3.933594 -5.632812 Z M 1.941406 -2.097656 C 1.941406 -1.722656 2 -1.386719 2.117188 -1.085938 C 2.328125 -0.527344 2.707031 -0.246094 3.25 -0.246094 C 3.558594 -0.246094 3.824219 -0.363281 4.050781 -0.59375 C 4.28125 -0.824219 4.394531 -1.207031 4.394531 -1.75 C 4.394531 -2.277344 4.222656 -2.726562 3.878906 -3.105469 C 3.667969 -3.339844 3.246094 -3.660156 2.617188 -4.070312 C 2.367188 -3.683594 2.199219 -3.386719 2.121094 -3.183594 C 2 -2.875 1.941406 -2.511719 1.941406 -2.097656 Z M 0.339844 -2.0625 C 0.339844 -2.746094 0.582031 -3.285156 1.066406 -3.679688 C 1.332031 -3.898438 1.714844 -4.09375 2.21875 -4.257812 L 2.21875 -4.382812 C 2.117188 -4.40625 1.910156 -4.546875 1.601562 -4.800781 C 1.292969 -5.054688 1.066406 -5.285156 0.917969 -5.496094 C 0.738281 -5.742188 0.621094 -5.972656 0.5625 -6.179688 C 0.503906 -6.390625 0.476562 -6.613281 0.476562 -6.84375 C 0.476562 -7.488281 0.753906 -8.039062 1.308594 -8.488281 C 1.863281 -8.941406 2.589844 -9.167969 3.488281 -9.167969 C 4.324219 -9.167969 4.960938 -8.980469 5.40625 -8.601562 C 5.851562 -8.226562 6.074219 -7.785156 6.074219 -7.273438 C 6.074219 -6.746094 5.847656 -6.308594 5.390625 -5.957031 C 5.140625 -5.761719 4.792969 -5.585938 4.347656 -5.429688 L 4.347656 -5.339844 C 4.980469 -4.882812 5.417969 -4.511719 5.652344 -4.226562 C 6.050781 -3.738281 6.25 -3.171875 6.25 -2.527344 C 6.25 -1.671875 5.953125 -1.003906 5.363281 -0.527344 C 4.773438 -0.0507812 4.019531 0.1875 3.105469 0.1875 C 2.425781 0.1875 1.792969 0 1.210938 -0.378906 C 0.628906 -0.761719 0.339844 -1.320312 0.339844 -2.0625 Z "/>
</g>
</g>
</defs>
<g fill="rgb(94.117647%, 53.333333%, 24.313725%)" fill-opacity="1">
<use xlink:href="#glyph-0-0" x="30" y="30"/>
<use xlink:href="#glyph-0-1" x="37" y="30"/>
<use xlink:href="#glyph-0-2" x="44" y="30"/>
<use xlink:href="#glyph-0-3" x="51" y="30"/>
</g>
</svg>
