<?xml version="1.0" encoding="UTF-8"?>
<svg xmlns="http://www.w3.org/2000/svg" xmlns:xlink="http://www.w3.org/1999/xlink" width="854" height="480" viewBox="0 0 854 480">
<defs>
<g>
<g id="glyph-0-0">
<path d="M 0.292969 -1.0625 C 0.292969 -1.289062 0.367188 -1.476562 0.515625 -1.632812 C 0.664062 -1.789062 0.863281 -1.867188 1.113281 -1.867188 C 1.433594 -1.867188 1.867188 -1.675781 2.410156 -1.285156 C 2.953125 -0.898438 3.371094 -0.703125 3.671875 -0.703125 C 4.023438 -0.703125 4.328125 -0.828125 4.582031 -1.074219 C 4.839844 -1.320312 4.96875 -1.65625 4.96875 -2.078125 C 4.96875 -2.507812 4.820312 -2.871094 4.53125 -3.171875 C 4.242188 -3.46875 3.914062 -3.703125 3.546875 -3.867188 C 3.15625 -4.046875 2.714844 -4.175781 2.21875 -4.257812 C 1.898438 -4.308594 1.382812 -4.359375 0.675781 -4.40625 L 1.972656 -9.011719 L 6.261719 -9.011719 L 5.691406 -7.3125 L 1.984375 -7.3125 L 1.691406 -6.230469 C 2.726562 -6.199219 3.5625 -6.050781 4.207031 -5.78125 C 5.414062 -5.277344 6.015625 -4.382812 6.015625 -3.097656 C 6.015625 -2.160156 5.65625 -1.390625 4.933594 -0.785156 C 4.214844 -0.179688 3.308594 0.125 2.21875 0.125 C 1.667969 0.125 1.210938 0.015625 0.84375 -0.203125 C 0.476562 -0.417969 0.292969 -0.707031 0.292969 -1.0625 Z "/>
</g>
<g id="glyph-0-1">
<path d="M 2.402344 -2.960938 C 2.410156 -1.875 2.492188 -1.144531 2.644531 -0.765625 C 2.796875 -0.386719 3.023438 -0.195312 3.332031 -0.195312 C 3.71875 -0.195312 3.980469 -0.546875 4.113281 -1.25 C 4.1875 -1.636719 4.226562 -2.207031 4.226562 -2.960938 L 4.226562 -6.015625 C 4.226562 -7.097656 4.148438 -7.828125 3.992188 -8.207031 C 3.839844 -8.585938 3.617188 -8.777344 3.320312 -8.777344 C 3.019531 -8.777344 2.792969 -8.582031 2.636719 -8.199219 C 2.480469 -7.816406 2.402344 -7.085938 2.402344 -6.015625 Z M 0.304688 -4.425781 C 0.304688 -6.019531 0.660156 -7.253906 1.375 -8.125 C 1.9375 -8.820312 2.585938 -9.167969 3.3125 -9.167969 C 4.15625 -9.167969 4.867188 -8.738281 5.441406 -7.882812 C 6.027344 -7.007812 6.320312 -5.90625 6.320312 -4.578125 C 6.320312 -3.011719 5.988281 -1.789062 5.324219 -0.917969 C 4.765625 -0.183594 4.097656 0.183594 3.320312 0.183594 C 2.773438 0.183594 2.308594 0.0234375 1.921875 -0.300781 C 1.535156 -0.621094 1.203125 -1.035156 0.929688 -1.542969 C 0.695312 -1.972656 0.53125 -2.464844 0.4375 -3.019531 C 0.378906 -3.347656 0.335938 -3.816406 0.304688 -4.425781 Z "/>
</g>
<g id="glyph-0-2">
<path d="M 0.226562 -0.304688 C 1.648438 -1.84375 2.570312 -2.914062 3 -3.515625 C 3.660156 -4.425781 3.992188 -5.234375 3.992188 -5.9375 C 3.992188 -6.355469 3.863281 -6.742188 3.609375 -7.105469 C 3.355469 -7.46875 2.960938 -7.648438 2.429688 -7.648438 C 1.960938 -7.648438 1.566406 -7.488281 1.242188 -7.160156 C 1.070312 -6.984375 0.914062 -6.746094 0.78125 -6.445312 L 0.417969 -6.445312 C 0.710938 -7.371094 1.121094 -8.054688 1.640625 -8.5 C 2.160156 -8.945312 2.746094 -9.167969 3.398438 -9.167969 C 4.015625 -9.167969 4.574219 -8.953125 5.078125 -8.523438 C 5.582031 -8.097656 5.832031 -7.46875 5.832031 -6.640625 C 5.832031 -6.207031 5.714844 -5.761719 5.476562 -5.304688 C 5.242188 -4.851562 4.84375 -4.355469 4.285156 -3.820312 L 2.253906 -1.882812 L 2.253906 -1.769531 L 4.148438 -1.769531 C 4.808594 -1.769531 5.238281 -1.824219 5.4375 -1.933594 C 5.640625 -2.042969 5.84375 -2.332031 6.046875 -2.804688 L 6.367188 -2.804688 L 5.769531 0 L 0.226562 0 Z "/>
</g>
<g id="glyph-0-3">
<path d="M 3.496094 -3.964844 C 3.597656 -3.964844 3.710938 -3.984375 3.835938 -4.023438 C 3.964844 -4.0625 4.042969 -4.097656 4.070312 -4.132812 C 4.089844 -4.160156 4.117188 -4.316406 4.148438 -4.601562 C 4.179688 -4.890625 4.191406 -5.226562 4.191406 -5.617188 C 4.191406 -6.050781 4.183594 -6.441406 4.167969 -6.785156 C 4.148438 -7.132812 4.117188 -7.429688 4.070312 -7.683594 C 4.011719 -7.980469 3.9375 -8.214844 3.847656 -8.378906 C 3.691406 -8.65625 3.472656 -8.796875 3.191406 -8.796875 C 2.878906 -8.796875 2.652344 -8.640625 2.511719 -8.335938 C 2.375 -8.03125 2.304688 -7.582031 2.304688 -6.984375 C 2.304688 -5.984375 2.394531 -5.230469 2.578125 -4.722656 C 2.761719 -4.21875 3.066406 -3.964844 3.496094 -3.964844 Z M 0.398438 -0.148438 C 1.113281 -0.292969 1.710938 -0.523438 2.195312 -0.847656 C 3.058594 -1.433594 3.636719 -2.320312 3.933594 -3.515625 L 3.867188 -3.5625 C 3.683594 -3.5 3.539062 -3.457031 3.429688 -3.429688 C 3.21875 -3.382812 2.996094 -3.359375 2.761719 -3.359375 C 2.0625 -3.359375 1.480469 -3.601562 1.015625 -4.082031 C 0.550781 -4.5625 0.320312 -5.21875 0.320312 -6.046875 C 0.320312 -7.007812 0.605469 -7.765625 1.179688 -8.328125 C 1.75 -8.886719 2.429688 -9.167969 3.210938 -9.167969 C 4.109375 -9.167969 4.847656 -8.820312 5.425781 -8.128906 C 6.003906 -7.4375 6.296875 -6.519531 6.296875 -5.382812 C 6.296875 -3.671875 5.636719 -2.300781 4.316406 -1.261719 C 3.210938 -0.390625 1.902344 0.09375 0.398438 0.1875 Z "/>
</g>
</g>
</defs>
<g fill="rgb(94.117647%, 53.333333%, 24.313725%)" fill-opacity="1">
<use xlink:href="#glyph-0-0" x="30" y="30"/>
<use xlink:href="#glyph-0-1" x="37" y="30"/>
<use xlink:href="#glyph-0-2" x="44" y="30"/>
<use xlink:href="#glyph-0-3" x="51" y="30"/>
</g>
</svg>
