<?xml version="1.0" encoding="UTF-8"?>
<svg xmlns="http://www.w3.org/2000/svg" xmlns:xlink="http://www.w3.org/1999/xlink" width="854" height="480" viewBox="0 0 854 480">
<defs>
<g>
<g id="glyph-0-0">
<path d="M 0.890625 -0.320312 C 1.570312 -0.320312 2.003906 -0.410156 2.195312 -0.59375 C 2.386719 -0.78125 2.480469 -1.128906 2.480469 -1.648438 L 2.480469 -6.785156 C 2.480469 -7.113281 2.441406 -7.347656 2.367188 -7.488281 C 2.289062 -7.625 2.152344 -7.695312 1.945312 -7.695312 C 1.835938 -7.695312 1.671875 -7.660156 1.445312 -7.585938 C 1.300781 -7.542969 1.105469 -7.472656 0.859375 -7.375 L 0.859375 -7.714844 L 4.226562 -9.167969 L 4.460938 -9.167969 L 4.460938 -1.570312 C 4.460938 -1.082031 4.539062 -0.753906 4.695312 -0.578125 C 4.851562 -0.40625 5.25 -0.320312 5.890625 -0.320312 L 5.890625 0 L 0.890625 0 Z "/>
</g>
<g id="glyph-0-1">
<path d="M 2.402344 -2.960938 C 2.410156 -1.875 2.492188 -1.144531 2.644531 -0.765625 C 2.796875 -0.386719 3.023438 -0.195312 3.332031 -0.195312 C 3.71875 -0.195312 3.980469 -0.546875 4.113281 -1.25 C 4.1875 -1.636719 4.226562 -2.207031 4.226562 -2.960938 L 4.226562 -6.015625 C 4.226562 -7.097656 4.148438 -7.828125 3.992188 -8.207031 C 3.839844 -8.585938 3.617188 -8.777344 3.320312 -8.777344 C 3.019531 -8.777344 2.792969 -8.582031 2.636719 -8.199219 C 2.480469 -7.816406 2.402344 -7.085938 2.402344 -6.015625 Z M 0.304688 -4.425781 C 0.304688 -6.019531 0.660156 -7.253906 1.375 -8.125 C 1.9375 -8.820312 2.585938 -9.167969 3.3125 -9.167969 C 4.15625 -9.167969 4.867188 -8.738281 5.441406 -7.882812 C 6.027344 -7.007812 6.320312 -5.90625 6.320312 -4.578125 C 6.320312 -3.011719 5.988281 -1.789062 5.324219 -0.917969 C 4.765625 -0.183594 4.097656 0.183594 3.320312 0.183594 C 2.773438 0.183594 2.308594 0.0234375 1.921875 -0.300781 C 1.535156 -0.621094 1.203125 -1.035156 0.929688 -1.542969 C 0.695312 -1.972656 0.53125 -2.464844 0.4375 -3.019531 C 0.378906 -3.347656 0.335938 -3.816406 0.304688 -4.425781 Z "/>
</g>
<g id="glyph-0-2">
<path d="M 3.152344 -5.011719 C 2.898438 -5.011719 2.738281 -4.972656 2.667969 -4.894531 C 2.597656 -4.816406 2.550781 -4.6875 2.527344 -4.503906 C 2.511719 -4.394531 2.5 -4.242188 2.488281 -4.039062 C 2.472656 -3.835938 2.46875 -3.621094 2.46875 -3.386719 C 2.46875 -2.925781 2.476562 -2.523438 2.492188 -2.183594 C 2.511719 -1.84375 2.542969 -1.546875 2.589844 -1.296875 C 2.648438 -0.984375 2.738281 -0.71875 2.867188 -0.503906 C 2.996094 -0.289062 3.195312 -0.183594 3.464844 -0.183594 C 3.839844 -0.183594 4.085938 -0.371094 4.199219 -0.75 C 4.269531 -0.984375 4.304688 -1.457031 4.304688 -2.175781 C 4.304688 -3.253906 4.210938 -4 4.03125 -4.402344 C 3.847656 -4.808594 3.554688 -5.011719 3.152344 -5.011719 Z M 6.261719 -8.820312 C 5.320312 -8.65625 4.554688 -8.285156 3.960938 -7.703125 C 3.367188 -7.121094 2.957031 -6.375 2.726562 -5.460938 L 2.792969 -5.417969 C 2.949219 -5.46875 3.082031 -5.507812 3.195312 -5.535156 C 3.417969 -5.585938 3.644531 -5.613281 3.878906 -5.613281 C 4.535156 -5.613281 5.105469 -5.394531 5.59375 -4.953125 C 6.078125 -4.515625 6.320312 -3.84375 6.320312 -2.9375 C 6.320312 -1.921875 6.027344 -1.144531 5.441406 -0.613281 C 4.855469 -0.078125 4.183594 0.1875 3.425781 0.1875 C 2.578125 0.1875 1.855469 -0.144531 1.257812 -0.816406 C 0.664062 -1.488281 0.363281 -2.414062 0.363281 -3.59375 C 0.363281 -5.210938 0.964844 -6.535156 2.160156 -7.566406 C 3.25 -8.5 4.617188 -9.03125 6.261719 -9.167969 Z "/>
</g>
</g>
</defs>
<g fill="rgb(24.705882%, 72.54902%, 31.372549%)" fill-opacity="1">
<use xlink:href="#glyph-0-0" x="30" y="30"/>
<use xlink:href="#glyph-0-1" x="37" y="30"/>
<use xlink:href="#glyph-0-1" x="44" y="30"/>
<use xlink:href="#glyph-0-2" x="51" y="30"/>
</g>
</svg>
