<?xml version="1.0" encoding="UTF-8"?>
<svg xmlns="http://www.w3.org/2000/svg" xmlns:xlink="http://www.w3.org/1999/xlink" width="854" height="480" viewBox="0 0 854 480">
<defs>
<g>
<g id="glyph-0-0">
<path d="M 3.496094 -3.964844 C 3.597656 -3.964844 3.710938 -3.984375 3.835938 -4.023438 C 3.964844 -4.0625 4.042969 -4.097656 4.070312 -4.132812 C 4.089844 -4.160156 4.117188 -4.316406 4.148438 -4.601562 C 4.179688 -4.890625 4.191406 -5.226562 4.191406 -5.617188 C 4.191406 -6.050781 4.183594 -6.441406 4.167969 -6.785156 C 4.148438 -7.132812 4.117188 -7.429688 4.070312 -7.683594 C 4.011719 -7.980469 3.9375 -8.214844 3.847656 -8.378906 C 3.691406 -8.65625 3.472656 -8.796875 3.191406 -8.796875 C 2.878906 -8.796875 2.652344 -8.640625 2.511719 -8.335938 C 2.375 -8.03125 2.304688 -7.582031 2.304688 -6.984375 C 2.304688 -5.984375 2.394531 -5.230469 2.578125 -4.722656 C 2.761719 -4.21875 3.066406 -3.964844 3.496094 -3.964844 Z M 0.398438 -0.148438 C 1.113281 -0.292969 1.710938 -0.523438 2.195312 -0.847656 C 3.058594 -1.433594 3.636719 -2.320312 3.933594 -3.515625 L 3.867188 -3.5625 C 3.683594 -3.5 3.539062 -3.457031 3.429688 -3.429688 C 3.21875 -3.382812 2.996094 -3.359375 2.761719 -3.359375 C 2.0625 -3.359375 1.480469 -3.601562 1.015625 -4.082031 C 0.550781 -4.5625 0.320312 -5.21875 0.320312 -6.046875 C 0.320312 -7.007812 0.605469 -7.765625 1.179688 -8.328125 C 1.75 -8.886719 2.429688 -9.167969 3.210938 -9.167969 C 4.109375 -9.167969 4.847656 -8.820312 5.425781 -8.128906 C 6.003906 -7.4375 6.296875 -6.519531 6.296875 -5.382812 C 6.296875 -3.671875 5.636719 -2.300781 4.316406 -1.261719 C 3.210938 -0.390625 1.902344 0.09375 0.398438 0.1875 Z "/>
</g>
<g id="glyph-0-1">
<path d="M 0.890625 -0.320312 C 1.570312 -0.320312 2.003906 -0.410156 2.195312 -0.59375 C 2.386719 -0.78125 2.480469 -1.128906 2.480469 -1.648438 L 2.480469 -6.785156 C 2.480469 -7.113281 2.441406 -7.347656 2.367188 -7.488281 C 2.289062 -7.625 2.152344 -7.695312 1.945312 -7.695312 C 1.835938 -7.695312 1.671875 -7.660156 1.445312 -7.585938 C 1.300781 -7.542969 1.105469 -7.472656 0.859375 -7.375 L 0.859375 -7.714844 L 4.226562 -9.167969 L 4.460938 -9.167969 L 4.460938 -1.570312 C 4.460938 -1.082031 4.539062 -0.753906 4.695312 -0.578125 C 4.851562 -0.40625 5.25 -0.320312 5.890625 -0.320312 L 5.890625 0 L 0.890625 0 Z "/>
</g>
<g id="glyph-0-2">
<path d="M 0.8125 -9.011719 L 6.355469 -9.011719 L 3.222656 0 L 1.960938 0 L 4.5625 -7.082031 C 4.558594 -7.136719 4.546875 -7.171875 4.53125 -7.1875 L 1.984375 -7.1875 C 1.570312 -7.1875 1.265625 -7.121094 1.070312 -6.984375 C 0.878906 -6.851562 0.707031 -6.539062 0.554688 -6.046875 L 0.226562 -6.046875 Z "/>
</g>
</g>
</defs>
<g fill="rgb(94.117647%, 53.333333%, 24.313725%)" fill-opacity="1">
<use xlink:href="#glyph-0-0" x="30" y="30"/>
<use xlink:href="#glyph-0-1" x="37" y="30"/>
<use xlink:href="#glyph-0-2" x="44" y="30"/>
</g>
</svg>
