<?xml version="1.0" encoding="UTF-8"?>
<svg xmlns="http://www.w3.org/2000/svg" xmlns:xlink="http://www.w3.org/1999/xlink" width="854" height="480" viewBox="0 0 854 480">
<defs>
<g>
<g id="glyph-0-0">
<path d="M 2.113281 -1.972656 L 2.445312 -3.273438 L 1.753906 -3.273438 L 1.414062 -1.972656 Z M 0.0429688 -1.972656 L 0.78125 -1.972656 L 1.125 -3.273438 L 0.394531 -3.273438 L 0.46875 -3.679688 L 1.214844 -3.679688 L 1.65625 -5.246094 L 2.273438 -5.246094 L 1.84375 -3.679688 L 2.542969 -3.679688 L 2.984375 -5.246094 L 3.601562 -5.246094 L 3.160156 -3.679688 L 3.894531 -3.679688 L 3.824219 -3.273438 L 3.074219 -3.273438 L 2.734375 -1.972656 L 3.472656 -1.972656 L 3.402344 -1.566406 L 2.617188 -1.566406 L 2.214844 0 L 1.589844 0 L 2.003906 -1.566406 L 1.300781 -1.566406 L 0.871094 0 L 0.257812 0 L 0.683594 -1.566406 L -0.03125 -1.566406 Z "/>
</g>
<g id="glyph-0-1">
<path d="M 0.519531 -0.1875 C 0.914062 -0.1875 1.167969 -0.238281 1.28125 -0.347656 C 1.390625 -0.457031 1.445312 -0.660156 1.445312 -0.960938 L 1.445312 -3.957031 C 1.445312 -4.148438 1.425781 -4.285156 1.378906 -4.367188 C 1.335938 -4.449219 1.253906 -4.488281 1.136719 -4.488281 C 1.074219 -4.488281 0.976562 -4.46875 0.84375 -4.425781 C 0.757812 -4.398438 0.644531 -4.359375 0.5 -4.300781 L 0.5 -4.5 L 2.464844 -5.347656 L 2.601562 -5.347656 L 2.601562 -0.914062 C 2.601562 -0.632812 2.648438 -0.4375 2.738281 -0.339844 C 2.828125 -0.238281 3.0625 -0.1875 3.4375 -0.1875 L 3.4375 0 L 0.519531 0 Z "/>
</g>
</g>
</defs>
<g fill="rgb(94.117647%, 53.333333%, 24.313725%)" fill-opacity="1">
<use xlink:href="#glyph-0-0" x="30" y="25.833008"/>
<use xlink:href="#glyph-0-1" x="34" y="25.833008"/>
</g>
</svg>
